<svg xmlns="http://www.w3.org/2000/svg" viewBox="0 0 100 100" fill="none">
  <rect width="100" height="100" rx="18" fill="#0a0010"/>
  <g stroke="#c084fc" stroke-width="3" stroke-linecap="round" stroke-linejoin="round">
    <line x1="50" y1="50" x2="50" y2="16"/>
    <polyline points="44,22 50,16 56,22"/>
    <line x1="50" y1="50" x2="50" y2="84"/>
    <polyline points="44,78 50,84 56,78"/>
    <line x1="50" y1="50" x2="16" y2="50"/>
    <polyline points="22,44 16,50 22,56"/>
    <line x1="50" y1="50" x2="84" y2="50"/>
    <polyline points="78,44 84,50 78,56"/>
    <line x1="50" y1="50" x2="26" y2="26"/>
    <polyline points="26,34 26,26 34,26"/>
    <line x1="50" y1="50" x2="74" y2="26"/>
    <polyline points="66,26 74,26 74,34"/>
    <line x1="50" y1="50" x2="26" y2="74"/>
    <polyline points="26,66 26,74 34,74"/>
    <line x1="50" y1="50" x2="74" y2="74"/>
    <polyline points="66,74 74,74 74,66"/>
  </g>
  <circle cx="50" cy="50" r="3.5" fill="#c084fc"/>
  <circle cx="50" cy="50" r="6" fill="none" stroke="#c084fc" stroke-width="1" opacity="0.4"/>
</svg>
